<svg width="602" height="338" xmlns="http://www.w3.org/2000/svg" xmlns:xlink="http://www.w3.org/1999/xlink" xml:space="preserve" overflow="hidden"><g><path d="M0 0 600.889 0 600.889 338 0 338Z" fill="#FFFFFF" transform="scale(1.00185 1)"/><path d="M56.0119 29.3544 198.08 29.3544 198.08 38.6398 56.0119 38.6398Z" fill="#FF6666" fill-rule="evenodd" transform="scale(1.00185 1)"/><path d="M198.08 29.3544 259.458 29.3544 259.458 38.6398 198.08 38.6398Z" fill="#FF6666" fill-rule="evenodd" transform="scale(1.00185 1)"/><path d="M56.0119 38.6398 198.08 38.6398 198.08 47.9254 56.0119 47.9254Z" fill="#FF6666" fill-rule="evenodd" transform="scale(1.00185 1)"/><path d="M198.08 38.6398 259.458 38.6398 259.458 47.9254 198.08 47.9254Z" fill="#FF6666" fill-rule="evenodd" transform="scale(1.00185 1)"/><path d="M56.0119 47.9254 198.08 47.9254 198.08 57.2106 56.0119 57.2106Z" fill="#FF6666" fill-rule="evenodd" transform="scale(1.00185 1)"/><path d="M198.08 47.9254 259.458 47.9254 259.458 57.2106 198.08 57.2106Z" fill="#FF6666" fill-rule="evenodd" transform="scale(1.00185 1)"/><path d="M56.0119 57.2106 198.08 57.2106 198.08 66.4959 56.0119 66.4959Z" fill="#FF6666" fill-rule="evenodd" transform="scale(1.00185 1)"/><path d="M198.08 57.2106 259.458 57.2106 259.458 66.4959 198.08 66.4959Z" fill="#FF6666" fill-rule="evenodd" transform="scale(1.00185 1)"/><path d="M56.0119 66.4959 198.08 66.4959 198.08 75.7815 56.0119 75.7815Z" fill="#FFCCCC" fill-rule="evenodd" transform="scale(1.00185 1)"/><path d="M198.08 66.4959 259.458 66.4959 259.458 75.7815 198.08 75.7815Z" fill="#FFCCCC" fill-rule="evenodd" transform="scale(1.00185 1)"/><path d="M56.0119 75.7815 198.08 75.7815 198.08 85.0667 56.0119 85.0667Z" fill="#FFCCCC" fill-rule="evenodd" transform="scale(1.00185 1)"/><path d="M198.08 75.7815 259.458 75.7815 259.458 85.0667 198.08 85.0667Z" fill="#FFCCCC" fill-rule="evenodd" transform="scale(1.00185 1)"/><path d="M56.0119 85.0667 198.08 85.0667 198.08 94.3523 56.0119 94.3523Z" fill="#FFCCCC" fill-rule="evenodd" transform="scale(1.00185 1)"/><path d="M198.08 85.0667 259.458 85.0667 259.458 94.3523 198.08 94.3523Z" fill="#FFCCCC" fill-rule="evenodd" transform="scale(1.00185 1)"/><path d="M56.0119 94.3523 198.08 94.3523 198.08 103.638 56.0119 103.638Z" fill="#FFCCCC" fill-rule="evenodd" transform="scale(1.00185 1)"/><path d="M198.08 94.3523 259.458 94.3523 259.458 103.638 198.08 103.638Z" fill="#FFCCCC" fill-rule="evenodd" transform="scale(1.00185 1)"/><path d="M56.0119 103.638 198.08 103.638 198.08 112.923 56.0119 112.923Z" fill="#FFCCCC" fill-rule="evenodd" transform="scale(1.00185 1)"/><path d="M198.08 103.638 259.458 103.638 259.458 112.923 198.08 112.923Z" fill="#FFCCCC" fill-rule="evenodd" transform="scale(1.00185 1)"/><path d="M56.0119 112.923 198.08 112.923 198.08 122.208 56.0119 122.208Z" fill="#FFCCCC" fill-rule="evenodd" transform="scale(1.00185 1)"/><path d="M198.08 112.923 259.458 112.923 259.458 122.208 198.08 122.208Z" fill="#FFCCCC" fill-rule="evenodd" transform="scale(1.00185 1)"/><path d="M56.0119 122.208 198.08 122.208 198.08 131.494 56.0119 131.494Z" fill="#FFCCCC" fill-rule="evenodd" transform="scale(1.00185 1)"/><path d="M198.08 122.208 259.458 122.208 259.458 131.494 198.08 131.494Z" fill="#FFCCCC" fill-rule="evenodd" transform="scale(1.00185 1)"/><path d="M56.0119 131.494 198.08 131.494 198.08 140.779 56.0119 140.779Z" fill="#FFCCCC" fill-rule="evenodd" transform="scale(1.00185 1)"/><path d="M198.08 131.494 259.458 131.494 259.458 140.779 198.08 140.779Z" fill="#FFCCCC" fill-rule="evenodd" transform="scale(1.00185 1)"/><path d="M56.0119 140.779 198.08 140.779 198.08 150.064 56.0119 150.064Z" fill="#FFCCCC" fill-rule="evenodd" transform="scale(1.00185 1)"/><path d="M198.08 140.779 259.458 140.779 259.458 150.064 198.08 150.064Z" fill="#FFCCCC" fill-rule="evenodd" transform="scale(1.00185 1)"/><path d="M56.0119 150.064 198.08 150.064 198.08 159.35 56.0119 159.35Z" fill="#FFCCCC" fill-rule="evenodd" transform="scale(1.00185 1)"/><path d="M198.08 150.064 259.458 150.064 259.458 159.35 198.08 159.35Z" fill="#FFCCCC" fill-rule="evenodd" transform="scale(1.00185 1)"/><path d="M56.0119 159.35 198.08 159.35 198.08 168.635 56.0119 168.635Z" fill="#FFCCCC" fill-rule="evenodd" transform="scale(1.00185 1)"/><path d="M198.08 159.35 259.458 159.35 259.458 168.635 198.08 168.635Z" fill="#FFCCCC" fill-rule="evenodd" transform="scale(1.00185 1)"/><path d="M56.0119 168.635 198.08 168.635 198.08 177.921 56.0119 177.921Z" fill="#FFCCCC" fill-rule="evenodd" transform="scale(1.00185 1)"/><path d="M198.08 168.635 259.458 168.635 259.458 177.921 198.08 177.921Z" fill="#FFCCCC" fill-rule="evenodd" transform="scale(1.00185 1)"/><path d="M56.0119 177.921 198.08 177.921 198.08 187.206 56.0119 187.206Z" fill="#FFCCCC" fill-rule="evenodd" transform="scale(1.00185 1)"/><path d="M198.08 177.921 259.458 177.921 259.458 187.206 198.08 187.206Z" fill="#FFCCCC" fill-rule="evenodd" transform="scale(1.00185 1)"/><path d="M56.0119 187.206 198.08 187.206 198.08 196.491 56.0119 196.491Z" fill="#FFCCCC" fill-rule="evenodd" transform="scale(1.00185 1)"/><path d="M198.08 187.206 259.458 187.206 259.458 196.491 198.08 196.491Z" fill="#FFCCCC" fill-rule="evenodd" transform="scale(1.00185 1)"/><path d="M56.0119 196.491 198.08 196.491 198.08 205.777 56.0119 205.777Z" fill="#FFCCCC" fill-rule="evenodd" transform="scale(1.00185 1)"/><path d="M198.08 196.491 259.458 196.491 259.458 205.777 198.08 205.777Z" fill="#FFCCCC" fill-rule="evenodd" transform="scale(1.00185 1)"/><path d="M56.0119 205.777 198.08 205.777 198.08 215.062 56.0119 215.062Z" fill="#FFCCCC" fill-rule="evenodd" transform="scale(1.00185 1)"/><path d="M198.08 205.777 259.458 205.777 259.458 215.062 198.08 215.062Z" fill="#FFCCCC" fill-rule="evenodd" transform="scale(1.00185 1)"/><path d="M56.0119 215.062 198.08 215.062 198.08 224.347 56.0119 224.347Z" fill="#FDEDCF" fill-rule="evenodd" transform="scale(1.00185 1)"/><path d="M198.08 215.062 259.458 215.062 259.458 224.347 198.08 224.347Z" fill="#FDEDCF" fill-rule="evenodd" transform="scale(1.00185 1)"/><path d="M56.0119 224.347 198.08 224.347 198.08 233.633 56.0119 233.633Z" fill="#FDEDCF" fill-rule="evenodd" transform="scale(1.00185 1)"/><path d="M198.08 224.347 259.458 224.347 259.458 233.633 198.08 233.633Z" fill="#FDEDCF" fill-rule="evenodd" transform="scale(1.00185 1)"/><path d="M56.0119 233.633 198.08 233.633 198.08 242.918 56.0119 242.918Z" fill="#FDEDCF" fill-rule="evenodd" transform="scale(1.00185 1)"/><path d="M198.08 233.633 259.458 233.633 259.458 242.918 198.08 242.918Z" fill="#FDEDCF" fill-rule="evenodd" transform="scale(1.00185 1)"/><path d="M56.0119 242.918 198.08 242.918 198.08 252.204 56.0119 252.204Z" fill="#FDEDCF" fill-rule="evenodd" transform="scale(1.00185 1)"/><path d="M198.08 242.918 259.458 242.918 259.458 252.204 198.08 252.204Z" fill="#FDEDCF" fill-rule="evenodd" transform="scale(1.00185 1)"/><path d="M56.0119 252.204 198.08 252.204 198.08 261.489 56.0119 261.489Z" fill="#FDEDCF" fill-rule="evenodd" transform="scale(1.00185 1)"/><path d="M198.08 252.204 259.458 252.204 259.458 261.489 198.08 261.489Z" fill="#FDEDCF" fill-rule="evenodd" transform="scale(1.00185 1)"/><path d="M56.0119 261.489 198.08 261.489 198.08 270.774 56.0119 270.774Z" fill="#FDEDCF" fill-rule="evenodd" transform="scale(1.00185 1)"/><path d="M198.08 261.489 259.458 261.489 259.458 270.774 198.08 270.774Z" fill="#FDEDCF" fill-rule="evenodd" transform="scale(1.00185 1)"/><path d="M56.0119 270.774 198.08 270.774 198.08 280.06 56.0119 280.06Z" fill="#FDEDCF" fill-rule="evenodd" transform="scale(1.00185 1)"/><path d="M198.08 270.774 259.458 270.774 259.458 280.06 198.08 280.06Z" fill="#FDEDCF" fill-rule="evenodd" transform="scale(1.00185 1)"/><path d="M56.0119 280.06 198.08 280.06 198.08 289.345 56.0119 289.345Z" fill="#D4F8EC" fill-rule="evenodd" transform="scale(1.00185 1)"/><path d="M198.08 280.06 259.458 280.06 259.458 289.345 198.08 289.345Z" fill="#D4F8EC" fill-rule="evenodd" transform="scale(1.00185 1)"/><path d="M56.0119 289.345 198.08 289.345 198.08 298.631 56.0119 298.631Z" fill="#D4F8EC" fill-rule="evenodd" transform="scale(1.00185 1)"/><path d="M198.08 289.345 259.458 289.345 259.458 298.631 198.08 298.631Z" fill="#D4F8EC" fill-rule="evenodd" transform="scale(1.00185 1)"/><path d="M56.0119 298.631 198.08 298.631 198.08 307.916 56.0119 307.916Z" fill="#D4F8EC" fill-rule="evenodd" transform="scale(1.00185 1)"/><path d="M198.08 298.631 259.458 298.631 259.458 307.916 198.08 307.916Z" fill="#D4F8EC" fill-rule="evenodd" transform="scale(1.00185 1)"/><text font-family="Metric Bold,Metric Bold_MSFontService,sans-serif" font-weight="700" font-size="17" transform="matrix(0.37625 0 0 0.375556 204.501 28)">Risk Categorisation</text><text font-family="Metric Bold,Metric Bold_MSFontService,sans-serif" font-weight="700" font-size="17" transform="matrix(0.37625 0 0 0.375556 107.802 28)">Industry Sector</text><text font-family="Metric Light,Metric Light_MSFontService,sans-serif" font-weight="300" font-size="17" transform="matrix(0.37625 0 0 0.375556 221.275 37)">Critical</text><text font-family="Metric Light,Metric Light_MSFontService,sans-serif" font-weight="300" font-size="17" transform="matrix(0.37625 0 0 0.375556 57.8932 37)">Extraction fossil fuels </text><text font-family="Metric Light,Metric Light_MSFontService,sans-serif" font-weight="300" font-size="17" transform="matrix(0.37625 0 0 0.375556 109.709 37)">(</text><text font-family="Metric Light,Metric Light_MSFontService,sans-serif" font-weight="300" font-size="17" transform="matrix(0.37625 0 0 0.375556 111.788 37)">Oil </text><text font-family="Metric Light,Metric Light_MSFontService,sans-serif" font-weight="300" font-size="17" transform="matrix(0.37625 0 0 0.375556 119.623 37)">&amp; </text><text font-family="Metric Light,Metric Light_MSFontService,sans-serif" font-weight="300" font-size="17" transform="matrix(0.37625 0 0 0.375556 124.676 37)">Gas</text><text font-family="Metric Light,Metric Light_MSFontService,sans-serif" font-weight="300" font-size="17" transform="matrix(0.37625 0 0 0.375556 133.676 37)">)</text><text font-family="Metric Light,Metric Light_MSFontService,sans-serif" font-weight="300" font-size="17" transform="matrix(0.37625 0 0 0.375556 221.275 47)">Critical</text><text font-family="Metric Light,Metric Light_MSFontService,sans-serif" font-weight="300" font-size="17" transform="matrix(0.37625 0 0 0.375556 57.8932 47)">Massive destruction</text><text font-family="Metric Light,Metric Light_MSFontService,sans-serif" font-weight="300" font-size="17" transform="matrix(0.37625 0 0 0.375556 105.494 47)">, </text><text font-family="Metric Light,Metric Light_MSFontService,sans-serif" font-weight="300" font-size="17" transform="matrix(0.37625 0 0 0.375556 107.81 47)">Weapons </text><text font-family="Metric Light,Metric Light_MSFontService,sans-serif" font-weight="300" font-size="17" transform="matrix(0.37625 0 0 0.375556 131.233 47)">&amp; </text><text font-family="Metric Light,Metric Light_MSFontService,sans-serif" font-weight="300" font-size="17" transform="matrix(0.37625 0 0 0.375556 136.286 47)">Mine</text><text font-family="Metric Light,Metric Light_MSFontService,sans-serif" font-weight="300" font-size="17" transform="matrix(0.37625 0 0 0.375556 147.958 47)">antipersone</text><text font-family="Metric Light,Metric Light_MSFontService,sans-serif" font-weight="300" font-size="17" transform="matrix(0.37625 0 0 0.375556 221.275 56)">Critical</text><text font-family="Metric Light,Metric Light_MSFontService,sans-serif" font-weight="300" font-size="17" transform="matrix(0.37625 0 0 0.375556 57.8932 56)">Mining of conflict resources</text><text font-family="Metric Light,Metric Light_MSFontService,sans-serif" font-weight="300" font-size="17" transform="matrix(0.37625 0 0 0.375556 221.275 65)">Critical</text><text font-family="Metric Light,Metric Light_MSFontService,sans-serif" font-weight="300" font-size="17" transform="matrix(0.37625 0 0 0.375556 57.8932 65)">Pornography</text><text font-family="Metric Light,Metric Light_MSFontService,sans-serif" font-weight="300" font-size="17" transform="matrix(0.37625 0 0 0.375556 223.509 74)">High</text><text font-family="Metric Light,Metric Light_MSFontService,sans-serif" font-weight="300" font-size="17" transform="matrix(0.37625 0 0 0.375556 57.8932 74)">Agriculture </text><text font-family="Metric Light,Metric Light_MSFontService,sans-serif" font-weight="300" font-size="17" transform="matrix(0.37625 0 0 0.375556 85.7937 74)">&amp; </text><text font-family="Metric Light,Metric Light_MSFontService,sans-serif" font-weight="300" font-size="17" transform="matrix(0.37625 0 0 0.375556 90.8467 74)">Farming</text><text font-family="Metric Light,Metric Light_MSFontService,sans-serif" font-weight="300" font-size="17" transform="matrix(0.37625 0 0 0.375556 223.509 84)">High</text><text font-family="Metric Light,Metric Light_MSFontService,sans-serif" font-weight="300" font-size="17" transform="matrix(0.37625 0 0 0.375556 57.8932 84)">Alcohol</text><text font-family="Metric Light,Metric Light_MSFontService,sans-serif" font-weight="300" font-size="17" transform="matrix(0.37625 0 0 0.375556 223.509 93)">High</text><text font-family="Metric Light,Metric Light_MSFontService,sans-serif" font-weight="300" font-size="17" transform="matrix(0.37625 0 0 0.375556 57.8932 93)">Energy </text><text font-family="Metric Light,Metric Light_MSFontService,sans-serif" font-weight="300" font-size="17" transform="matrix(0.37625 0 0 0.375556 76.276 93)">&amp; </text><text font-family="Metric Light,Metric Light_MSFontService,sans-serif" font-weight="300" font-size="17" transform="matrix(0.37625 0 0 0.375556 81.3291 93)">utility</text><text font-family="Metric Light,Metric Light_MSFontService,sans-serif" font-weight="300" font-size="17" transform="matrix(0.37625 0 0 0.375556 223.509 102)">High</text><text font-family="Metric Light,Metric Light_MSFontService,sans-serif" font-weight="300" font-size="17" transform="matrix(0.37625 0 0 0.375556 57.8932 102)">Gambling</text><text font-family="Metric Light,Metric Light_MSFontService,sans-serif" font-weight="300" font-size="17" transform="matrix(0.37625 0 0 0.375556 223.509 112)">High</text><text font-family="Metric Light,Metric Light_MSFontService,sans-serif" font-weight="300" font-size="17" transform="matrix(0.37625 0 0 0.375556 57.8932 112)">Tobacco</text><text font-family="Metric Light,Metric Light_MSFontService,sans-serif" font-weight="300" font-size="17" transform="matrix(0.37625 0 0 0.375556 223.509 121)">High</text><text font-family="Metric Light,Metric Light_MSFontService,sans-serif" font-weight="300" font-size="17" transform="matrix(0.37625 0 0 0.375556 57.8932 121)">Consumer packaged goods</text><text font-family="Metric Light,Metric Light_MSFontService,sans-serif" font-weight="300" font-size="17" transform="matrix(0.37625 0 0 0.375556 223.509 130)">High</text><text font-family="Metric Light,Metric Light_MSFontService,sans-serif" font-weight="300" font-size="17" transform="matrix(0.37625 0 0 0.375556 57.8932 130)">Health</text><text font-family="Metric Light,Metric Light_MSFontService,sans-serif" font-weight="300" font-size="17" transform="matrix(0.37625 0 0 0.375556 223.509 139)">High</text><text font-family="Metric Light,Metric Light_MSFontService,sans-serif" font-weight="300" font-size="17" transform="matrix(0.37625 0 0 0.375556 57.8932 139)">Hospitality</text><text font-family="Metric Light,Metric Light_MSFontService,sans-serif" font-weight="300" font-size="17" transform="matrix(0.37625 0 0 0.375556 223.509 149)">High</text><text font-family="Metric Light,Metric Light_MSFontService,sans-serif" font-weight="300" font-size="17" transform="matrix(0.37625 0 0 0.375556 57.8932 149)">Luxury</text><text font-family="Metric Light,Metric Light_MSFontService,sans-serif" font-weight="300" font-size="17" transform="matrix(0.37625 0 0 0.375556 223.509 158)">High</text><text font-family="Metric Light,Metric Light_MSFontService,sans-serif" font-weight="300" font-size="17" transform="matrix(0.37625 0 0 0.375556 57.8932 158)">Mobility</text><text font-family="Metric Light,Metric Light_MSFontService,sans-serif" font-weight="300" font-size="17" transform="matrix(0.37625 0 0 0.375556 223.509 167)">High</text><text font-family="Metric Light,Metric Light_MSFontService,sans-serif" font-weight="300" font-size="17" transform="matrix(0.37625 0 0 0.375556 57.8932 167)">Others</text><text font-family="Metric Light,Metric Light_MSFontService,sans-serif" font-weight="300" font-size="17" transform="matrix(0.37625 0 0 0.375556 223.509 177)">High</text><text font-family="Metric Light,Metric Light_MSFontService,sans-serif" font-weight="300" font-size="17" transform="matrix(0.37625 0 0 0.375556 57.8932 177)">Pharma</text><text font-family="Metric Light,Metric Light_MSFontService,sans-serif" font-weight="300" font-size="17" transform="matrix(0.37625 0 0 0.375556 223.509 186)">High</text><text font-family="Metric Light,Metric Light_MSFontService,sans-serif" font-weight="300" font-size="17" transform="matrix(0.37625 0 0 0.375556 57.8932 186)">QSR</text><text font-family="Metric Light,Metric Light_MSFontService,sans-serif" font-weight="300" font-size="17" transform="matrix(0.37625 0 0 0.375556 223.509 195)">High</text><text font-family="Metric Light,Metric Light_MSFontService,sans-serif" font-weight="300" font-size="17" transform="matrix(0.37625 0 0 0.375556 57.8932 195)">Retail </text><text font-family="Metric Light,Metric Light_MSFontService,sans-serif" font-weight="300" font-size="17" transform="matrix(0.37625 0 0 0.375556 72.6749 195)">&amp; </text><text font-family="Metric Light,Metric Light_MSFontService,sans-serif" font-weight="300" font-size="17" transform="matrix(0.37625 0 0 0.375556 77.728 195)">ecommerce</text><text font-family="Metric Light,Metric Light_MSFontService,sans-serif" font-weight="300" font-size="17" transform="matrix(0.37625 0 0 0.375556 223.509 204)">High</text><text font-family="Metric Light,Metric Light_MSFontService,sans-serif" font-weight="300" font-size="17" transform="matrix(0.37625 0 0 0.375556 57.8932 204)">Tourism</text><text font-family="Metric Light,Metric Light_MSFontService,sans-serif" font-weight="300" font-size="17" transform="matrix(0.37625 0 0 0.375556 223.509 214)">High</text><text font-family="Metric Light,Metric Light_MSFontService,sans-serif" font-weight="300" font-size="17" transform="matrix(0.37625 0 0 0.375556 57.8932 214)">Transportation</text><text font-family="Metric Light,Metric Light_MSFontService,sans-serif" font-weight="300" font-size="17" transform="matrix(0.37625 0 0 0.375556 219.668 223)">Medium</text><text font-family="Metric Light,Metric Light_MSFontService,sans-serif" font-weight="300" font-size="17" transform="matrix(0.37625 0 0 0.375556 57.8932 223)">Banking</text><text font-family="Metric Light,Metric Light_MSFontService,sans-serif" font-weight="300" font-size="17" transform="matrix(0.37625 0 0 0.375556 219.668 232)">Medium</text><text font-family="Metric Light,Metric Light_MSFontService,sans-serif" font-weight="300" font-size="17" transform="matrix(0.37625 0 0 0.375556 57.8932 232)">Financial Services</text><text font-family="Metric Light,Metric Light_MSFontService,sans-serif" font-weight="300" font-size="17" transform="matrix(0.37625 0 0 0.375556 219.668 241)">Medium</text><text font-family="Metric Light,Metric Light_MSFontService,sans-serif" font-weight="300" font-size="17" transform="matrix(0.37625 0 0 0.375556 57.8932 241)">Insurance</text><text font-family="Metric Light,Metric Light_MSFontService,sans-serif" font-weight="300" font-size="17" transform="matrix(0.37625 0 0 0.375556 219.668 251)">Medium</text><text font-family="Metric Light,Metric Light_MSFontService,sans-serif" font-weight="300" font-size="17" transform="matrix(0.37625 0 0 0.375556 57.8932 251)">Media </text><text font-family="Metric Light,Metric Light_MSFontService,sans-serif" font-weight="300" font-size="17" transform="matrix(0.37625 0 0 0.375556 73.935 251)">&amp; </text><text font-family="Metric Light,Metric Light_MSFontService,sans-serif" font-weight="300" font-size="17" transform="matrix(0.37625 0 0 0.375556 78.988 251)">entertainment</text><text font-family="Metric Light,Metric Light_MSFontService,sans-serif" font-weight="300" font-size="17" transform="matrix(0.37625 0 0 0.375556 219.668 260)">Medium</text><text font-family="Metric Light,Metric Light_MSFontService,sans-serif" font-weight="300" font-size="17" transform="matrix(0.37625 0 0 0.375556 57.8932 260)">Private Equity</text><text font-family="Metric Light,Metric Light_MSFontService,sans-serif" font-weight="300" font-size="17" transform="matrix(0.37625 0 0 0.375556 219.668 269)">Medium</text><text font-family="Metric Light,Metric Light_MSFontService,sans-serif" font-weight="300" font-size="17" transform="matrix(0.37625 0 0 0.375556 57.8932 269)">Tech pure players</text><text font-family="Metric Light,Metric Light_MSFontService,sans-serif" font-weight="300" font-size="17" transform="matrix(0.37625 0 0 0.375556 219.668 279)">Medium</text><text font-family="Metric Light,Metric Light_MSFontService,sans-serif" font-weight="300" font-size="17" transform="matrix(0.37625 0 0 0.375556 57.8932 279)">Telecommunications</text><text font-family="Metric Light,Metric Light_MSFontService,sans-serif" font-weight="300" font-size="17" transform="matrix(0.37625 0 0 0.375556 224.254 288)">Low</text><text font-family="Metric Light,Metric Light_MSFontService,sans-serif" font-weight="300" font-size="17" transform="matrix(0.37625 0 0 0.375556 57.8932 288)">Green Technology or services</text><text font-family="Metric Light,Metric Light_MSFontService,sans-serif" font-weight="300" font-size="17" transform="matrix(0.37625 0 0 0.375556 224.254 297)">Low</text><text font-family="Metric Light,Metric Light_MSFontService,sans-serif" font-weight="300" font-size="17" transform="matrix(0.37625 0 0 0.375556 57.8932 297)">Others </text><text font-family="Metric Light,Metric Light_MSFontService,sans-serif" font-weight="300" font-size="17" transform="matrix(0.37625 0 0 0.375556 75.4253 297)">(</text><text font-family="Metric Light,Metric Light_MSFontService,sans-serif" font-weight="300" font-size="17" transform="matrix(0.37625 0 0 0.375556 77.5041 297)">Public Sector </text><text font-family="Metric Light,Metric Light_MSFontService,sans-serif" font-weight="300" font-size="17" transform="matrix(0.37625 0 0 0.375556 110.163 297)">&amp; </text><text font-family="Metric Light,Metric Light_MSFontService,sans-serif" font-weight="300" font-size="17" transform="matrix(0.37625 0 0 0.375556 115.216 297)">Non</text><text font-family="Metric Light,Metric Light_MSFontService,sans-serif" font-weight="300" font-size="17" transform="matrix(0.37625 0 0 0.375556 123.972 297)">-</text><text font-family="Metric Light,Metric Light_MSFontService,sans-serif" font-weight="300" font-size="17" transform="matrix(0.37625 0 0 0.375556 126.01 297)">Profit</text><text font-family="Metric Light,Metric Light_MSFontService,sans-serif" font-weight="300" font-size="17" transform="matrix(0.37625 0 0 0.375556 138.962 297)">)</text><text font-family="Metric Light,Metric Light_MSFontService,sans-serif" font-weight="300" font-size="17" transform="matrix(0.37625 0 0 0.375556 224.254 306)">Low</text><text font-family="Metric Light,Metric Light_MSFontService,sans-serif" font-weight="300" font-size="17" transform="matrix(0.37625 0 0 0.375556 57.8932 306)">Renewable energies</text><path d="M270.588 38.87 319.786 38.87 319.786 58.3989 270.588 58.3989Z" stroke="#FF0000" stroke-width="1.25185" stroke-linejoin="round" stroke-miterlimit="10" fill="#FF9999" transform="scale(1.00185 1)"/><text fill="#263746" font-family="Metric Light,Metric Light_MSFontService,sans-serif" font-weight="300" font-size="30" transform="matrix(0.37625 0 0 0.375556 289.44 53)">No</text><path d="M270.588 133.51 319.786 133.51 319.786 153.039 270.588 153.039Z" stroke="#FF0000" stroke-width="1.25185" stroke-linejoin="round" stroke-miterlimit="10" fill="#FFCCCC" transform="scale(1.00185 1)"/><text fill="#263746" font-family="Metric Light,Metric Light_MSFontService,sans-serif" font-weight="300" font-size="18" transform="matrix(0.37625 0 0 0.375556 285.637 142)">General</text><text fill="#263746" font-family="Metric Light,Metric Light_MSFontService,sans-serif" font-weight="300" font-size="18" transform="matrix(0.37625 0 0 0.375556 276.272 150)">questions </text><text fill="#263746" font-family="Metric Light,Metric Light_MSFontService,sans-serif" font-weight="300" font-size="18" transform="matrix(0.37625 0 0 0.375556 302.285 150)">&gt; </text><text fill="#263746" font-family="Metric Light,Metric Light_MSFontService,sans-serif" font-weight="300" font-size="18" transform="matrix(0.37625 0 0 0.375556 306.47 150)">0</text><text fill="#263746" font-family="Metric Light,Metric Light_MSFontService,sans-serif" font-weight="300" font-size="18" transform="matrix(0.37625 0 0 0.375556 310.1 150)">.</text><text fill="#263746" font-family="Metric Light,Metric Light_MSFontService,sans-serif" font-weight="300" font-size="18" transform="matrix(0.37625 0 0 0.375556 311.055 150)">8</text><path d="M343.446 123.746 392.643 123.746 392.643 143.274 343.446 143.274Z" stroke="#FF0000" stroke-width="1.25185" stroke-linejoin="round" stroke-miterlimit="10" fill="#FFCCCC" transform="scale(1.00185 1)"/><text fill="#263746" font-family="Metric Light,Metric Light_MSFontService,sans-serif" font-weight="300" font-size="18" transform="matrix(0.37625 0 0 0.375556 364.456 136)">OK</text><path d="M343.446 156.794 392.643 156.794 392.643 175.948 343.446 175.948Z" stroke="#FF0000" stroke-width="1.25185" stroke-linejoin="round" stroke-miterlimit="10" fill="#FFCCCC" transform="scale(1.00185 1)"/><text fill="#263746" font-family="Metric Light,Metric Light_MSFontService,sans-serif" font-weight="300" font-size="18" transform="matrix(0.37625 0 0 0.375556 357.871 165)">Industry</text><text fill="#263746" font-family="Metric Light,Metric Light_MSFontService,sans-serif" font-weight="300" font-size="18" transform="matrix(0.37625 0 0 0.375556 349.132 173)">questions </text><text fill="#263746" font-family="Metric Light,Metric Light_MSFontService,sans-serif" font-weight="300" font-size="18" transform="matrix(0.37625 0 0 0.375556 375.145 173)">&gt; </text><text fill="#263746" font-family="Metric Light,Metric Light_MSFontService,sans-serif" font-weight="300" font-size="18" transform="matrix(0.37625 0 0 0.375556 379.331 173)">0</text><text fill="#263746" font-family="Metric Light,Metric Light_MSFontService,sans-serif" font-weight="300" font-size="18" transform="matrix(0.37625 0 0 0.375556 382.961 173)">.</text><text fill="#263746" font-family="Metric Light,Metric Light_MSFontService,sans-serif" font-weight="300" font-size="18" transform="matrix(0.37625 0 0 0.375556 383.916 173)">8</text><path d="M420.81 134.637 470.008 134.637 470.008 154.166 420.81 154.166Z" stroke="#FF0000" stroke-width="1.25185" stroke-linejoin="round" stroke-miterlimit="10" fill="#FFCCCC" transform="scale(1.00185 1)"/><text fill="#263746" font-family="Metric Light,Metric Light_MSFontService,sans-serif" font-weight="300" font-size="18" transform="matrix(0.37625 0 0 0.375556 442.146 147)">OK</text><path d="M420.81 161.677 470.008 161.677 470.008 181.206 420.81 181.206Z" stroke="#FF0000" stroke-width="1.25185" stroke-linejoin="round" stroke-miterlimit="10" fill="#FFCCCC" transform="scale(1.00185 1)"/><text fill="#263746" font-family="Metric Light,Metric Light_MSFontService,sans-serif" font-weight="300" font-size="17" transform="matrix(0.37625 0 0 0.375556 436.894 166)">Policy </text><text fill="#263746" font-family="Metric Light,Metric Light_MSFontService,sans-serif" font-weight="300" font-size="17" transform="matrix(0.37625 0 0 0.375556 452.367 166)">+</text><text fill="#263746" font-family="Metric Light,Metric Light_MSFontService,sans-serif" font-weight="300" font-size="17" transform="matrix(0.37625 0 0 0.375556 432.191 174)">Reporting </text><text fill="#263746" font-family="Metric Light,Metric Light_MSFontService,sans-serif" font-weight="300" font-size="17" transform="matrix(0.37625 0 0 0.375556 457.322 174)">+</text><text fill="#263746" font-family="Metric Light,Metric Light_MSFontService,sans-serif" font-weight="300" font-size="17" transform="matrix(0.37625 0 0 0.375556 426.589 181)">Certification </text><text fill="#263746" font-family="Metric Light,Metric Light_MSFontService,sans-serif" font-weight="300" font-size="17" transform="matrix(0.37625 0 0 0.375556 456.734 181)">&gt; </text><text fill="#263746" font-family="Metric Light,Metric Light_MSFontService,sans-serif" font-weight="300" font-size="17" transform="matrix(0.37625 0 0 0.375556 460.687 181)">1</text><text fill="#263746" font-family="Metric Light,Metric Light_MSFontService,sans-serif" font-weight="300" font-size="17" transform="matrix(0.37625 0 0 0.375556 462.798 181)">.</text><text fill="#263746" font-family="Metric Light,Metric Light_MSFontService,sans-serif" font-weight="300" font-size="17" transform="matrix(0.37625 0 0 0.375556 463.7 181)">5</text><path d="M498.55 147.03 547.748 147.03 547.748 166.559 498.55 166.559Z" stroke="#FF0000" stroke-width="1.25185" stroke-linejoin="round" stroke-miterlimit="10" fill="#FFCCCC" transform="scale(1.00185 1)"/><text fill="#263746" font-family="Metric Light,Metric Light_MSFontService,sans-serif" font-weight="300" font-size="18" transform="matrix(0.37625 0 0 0.375556 519.838 159)">OK</text><path d="M498.55 172.568 547.748 172.568 547.748 192.097 498.55 192.097Z" stroke="#FF0000" stroke-width="1.25185" stroke-linejoin="round" stroke-miterlimit="10" fill="#FFCCCC" transform="scale(1.00185 1)"/><text fill="#263746" font-family="Metric Light,Metric Light_MSFontService,sans-serif" font-weight="300" font-size="15" transform="matrix(0.37625 0 0 0.375556 510.157 178)">Talk with the</text><text fill="#263746" font-family="Metric Light,Metric Light_MSFontService,sans-serif" font-weight="300" font-size="15" transform="matrix(0.37625 0 0 0.375556 509.845 184)">Sustainability</text><text fill="#263746" font-family="Metric Light,Metric Light_MSFontService,sans-serif" font-weight="300" font-size="15" transform="matrix(0.37625 0 0 0.375556 515.331 191)">Director</text><path d="M270.588 282.23 319.786 282.23 319.786 301.759 270.588 301.759Z" stroke="#2ADA9F" stroke-width="1.25185" stroke-linejoin="round" stroke-miterlimit="10" fill="#D4F8EC" transform="scale(1.00185 1)"/><text fill="#263746" font-family="Metric Light,Metric Light_MSFontService,sans-serif" font-weight="300" font-size="30" transform="matrix(0.37625 0 0 0.375556 289.088 296)">OK</text><path d="M0-0.234722 14.1341-0.234722C14.2638-0.234722 14.3689-0.129634 14.3689 0L14.3689 9.7442 14.1341 9.50948 23.2607 9.50948 23.2607 9.97892 14.1341 9.97892C14.0045 9.97892 13.8994 9.87381 13.8994 9.7442L13.8994 0 14.1341 0.234722 0 0.234722ZM22.6348 7.86642 26.3904 9.7442 22.6348 11.622Z" fill="#FF0000" transform="matrix(1.00185 0 0 -1 320.377 143.254)"/><path d="M319.786 143.04 333.894 143.04C334.024 143.04 334.129 143.145 334.129 143.274L334.129 165.723 333.894 165.488 344.873 165.488 344.873 165.957 333.894 165.957C333.764 165.957 333.66 165.852 333.66 165.723L333.66 143.274 333.894 143.509 319.786 143.509ZM344.247 163.845 348.003 165.723 344.247 167.6Z" fill="#FF0000" transform="scale(1.00185 1)"/><path d="M0-0.234722 14.1087-0.234722C14.2383-0.234722 14.3434-0.129634 14.3434 0L14.3434 21.865 14.1087 21.6302 25.0877 21.6302 25.0877 22.0997 14.1087 22.0997C13.979 22.0997 13.874 21.9946 13.874 21.865L13.874 0 14.1087 0.234722 0 0.234722ZM24.4618 19.9872 28.2174 21.865 24.4618 23.7427Z" fill="#FF0000" transform="matrix(1.00185 0 0 -1 393.369 166.266)"/><path d="M392.643 166.324 406.753 166.324C406.881 166.324 406.986 166.429 406.986 166.559L406.986 171.497 406.753 171.262 417.73 171.262 417.73 171.731 406.753 171.731C406.621 171.731 406.516 171.626 406.516 171.497L406.516 166.559 406.753 166.794 392.643 166.794ZM417.107 169.619 420.863 171.497 417.107 173.374Z" fill="#FF0000" transform="scale(1.00185 1)"/><path d="M470.008 171.206 484.117 171.206C484.245 171.206 484.35 171.312 484.35 171.441L484.35 182.335 484.117 182.1 495.095 182.1 495.095 182.57 484.117 182.57C483.986 182.57 483.881 182.464 483.881 182.335L483.881 171.441 484.117 171.676 470.008 171.676ZM494.471 180.457 498.227 182.335 494.471 184.213Z" fill="#FF0000" transform="scale(1.00185 1)"/><path d="M0-0.234722 14.1087-0.234722C14.2383-0.234722 14.3434-0.129634 14.3434 0L14.3434 14.6819 14.1087 14.4471 25.0877 14.4471 25.0877 14.9166 14.1087 14.9166C13.979 14.9166 13.874 14.8115 13.874 14.6819L13.874 0 14.1087 0.234722 0 0.234722ZM24.4618 12.8041 28.2174 14.6819 24.4618 16.5596Z" fill="#FF0000" transform="matrix(1.00185 0 0 -1 470.877 171.476)"/><path d="M270.588 235.661 319.786 235.661 319.786 254.814 270.588 254.814Z" stroke="#F3A60D" stroke-width="1.25185" stroke-linejoin="round" stroke-miterlimit="10" fill="#FDEDCF" transform="scale(1.00185 1)"/><text fill="#263746" font-family="Metric Light,Metric Light_MSFontService,sans-serif" font-weight="300" font-size="18" transform="matrix(0.37625 0 0 0.375556 285.638 243)">General</text><text fill="#263746" font-family="Metric Light,Metric Light_MSFontService,sans-serif" font-weight="300" font-size="18" transform="matrix(0.37625 0 0 0.375556 276.389 252)">questions </text><text fill="#263746" font-family="Metric Light,Metric Light_MSFontService,sans-serif" font-weight="300" font-size="18" transform="matrix(0.37625 0 0 0.375556 302.402 252)">&gt; </text><text fill="#263746" font-family="Metric Light,Metric Light_MSFontService,sans-serif" font-weight="300" font-size="18" transform="matrix(0.37625 0 0 0.375556 306.588 252)">0</text><text fill="#263746" font-family="Metric Light,Metric Light_MSFontService,sans-serif" font-weight="300" font-size="18" transform="matrix(0.37625 0 0 0.375556 310.218 252)">.</text><text fill="#263746" font-family="Metric Light,Metric Light_MSFontService,sans-serif" font-weight="300" font-size="18" transform="matrix(0.37625 0 0 0.375556 311.173 252)">5</text><path d="M343.446 225.897 392.643 225.897 392.643 245.05 343.446 245.05Z" stroke="#F3A60D" stroke-width="1.25185" stroke-linejoin="round" stroke-miterlimit="10" fill="#FDEDCF" transform="scale(1.00185 1)"/><text fill="#263746" font-family="Metric Light,Metric Light_MSFontService,sans-serif" font-weight="300" font-size="18" transform="matrix(0.37625 0 0 0.375556 364.456 238)">OK</text><path d="M343.446 258.57 392.643 258.57 392.643 278.099 343.446 278.099Z" stroke="#F3A60D" stroke-width="1.25185" stroke-linejoin="round" stroke-miterlimit="10" fill="#FDEDCF" transform="scale(1.00185 1)"/><text fill="#263746" font-family="Metric Light,Metric Light_MSFontService,sans-serif" font-weight="300" font-size="18" transform="matrix(0.37625 0 0 0.375556 357.872 267)">Industry</text><text fill="#263746" font-family="Metric Light,Metric Light_MSFontService,sans-serif" font-weight="300" font-size="18" transform="matrix(0.37625 0 0 0.375556 349.25 275)">questions </text><text fill="#263746" font-family="Metric Light,Metric Light_MSFontService,sans-serif" font-weight="300" font-size="18" transform="matrix(0.37625 0 0 0.375556 375.263 275)">&gt; </text><text fill="#263746" font-family="Metric Light,Metric Light_MSFontService,sans-serif" font-weight="300" font-size="18" transform="matrix(0.37625 0 0 0.375556 379.448 275)">0</text><text fill="#263746" font-family="Metric Light,Metric Light_MSFontService,sans-serif" font-weight="300" font-size="18" transform="matrix(0.37625 0 0 0.375556 383.078 275)">.</text><text fill="#263746" font-family="Metric Light,Metric Light_MSFontService,sans-serif" font-weight="300" font-size="18" transform="matrix(0.37625 0 0 0.375556 384.033 275)">5</text><path d="M420.81 236.788 470.008 236.788 470.008 255.941 420.81 255.941Z" stroke="#F3A60D" stroke-width="1.25185" stroke-linejoin="round" stroke-miterlimit="10" fill="#FDEDCF" transform="scale(1.00185 1)"/><text fill="#263746" font-family="Metric Light,Metric Light_MSFontService,sans-serif" font-weight="300" font-size="18" transform="matrix(0.37625 0 0 0.375556 442.146 249)">OK</text><path d="M420.81 263.452 470.008 263.452 470.008 282.981 420.81 282.981Z" stroke="#F3A60D" stroke-width="1.25185" stroke-linejoin="round" stroke-miterlimit="10" fill="#FDEDCF" transform="scale(1.00185 1)"/><text fill="#263746" font-family="Metric Light,Metric Light_MSFontService,sans-serif" font-weight="300" font-size="15" transform="matrix(0.37625 0 0 0.375556 426.668 269)">Policy </text><text fill="#263746" font-family="Metric Light,Metric Light_MSFontService,sans-serif" font-weight="300" font-size="15" transform="matrix(0.37625 0 0 0.375556 440.32 269)">+ </text><text fill="#263746" font-family="Metric Light,Metric Light_MSFontService,sans-serif" font-weight="300" font-size="15" transform="matrix(0.37625 0 0 0.375556 444.468 269)">Reporting</text><text fill="#263746" font-family="Metric Light,Metric Light_MSFontService,sans-serif" font-weight="300" font-size="15" transform="matrix(0.37625 0 0 0.375556 429.565 275)">+ </text><text fill="#263746" font-family="Metric Light,Metric Light_MSFontService,sans-serif" font-weight="300" font-size="15" transform="matrix(0.37625 0 0 0.375556 433.713 275)">Certification </text><text fill="#263746" font-family="Metric Light,Metric Light_MSFontService,sans-serif" font-weight="300" font-size="15" transform="matrix(0.37625 0 0 0.375556 460.312 275)">&gt;</text><text fill="#263746" font-family="Metric Light,Metric Light_MSFontService,sans-serif" font-weight="300" font-size="15" transform="matrix(0.37625 0 0 0.375556 442.97 282)">0</text><text fill="#263746" font-family="Metric Light,Metric Light_MSFontService,sans-serif" font-weight="300" font-size="15" transform="matrix(0.37625 0 0 0.375556 445.995 282)">.</text><text fill="#263746" font-family="Metric Light,Metric Light_MSFontService,sans-serif" font-weight="300" font-size="15" transform="matrix(0.37625 0 0 0.375556 446.791 282)">5</text><path d="M498.55 248.806 547.748 248.806 547.748 268.334 498.55 268.334Z" stroke="#F3A60D" stroke-width="1.25185" stroke-linejoin="round" stroke-miterlimit="10" fill="#FDEDCF" transform="scale(1.00185 1)"/><text fill="#263746" font-family="Metric Light,Metric Light_MSFontService,sans-serif" font-weight="300" font-size="18" transform="matrix(0.37625 0 0 0.375556 519.838 261)">OK</text><path d="M498.55 274.343 547.748 274.343 547.748 293.872 498.55 293.872Z" stroke="#F3A60D" stroke-width="1.25185" stroke-linejoin="round" stroke-miterlimit="10" fill="#FDEDCF" transform="scale(1.00185 1)"/><text fill="#263746" font-family="Metric Light,Metric Light_MSFontService,sans-serif" font-weight="300" font-size="15" transform="matrix(0.37625 0 0 0.375556 510.157 279)">Talk with</text><text fill="#263746" font-family="Metric Light,Metric Light_MSFontService,sans-serif" font-weight="300" font-size="15" transform="matrix(0.37625 0 0 0.375556 530.614 279)">the</text><text fill="#263746" font-family="Metric Light,Metric Light_MSFontService,sans-serif" font-weight="300" font-size="15" transform="matrix(0.37625 0 0 0.375556 509.845 286)">Sustainability</text><text fill="#263746" font-family="Metric Light,Metric Light_MSFontService,sans-serif" font-weight="300" font-size="15" transform="matrix(0.37625 0 0 0.375556 515.331 293)">Director</text><path d="M0-0.234722 13.8993-0.234722C14.0289-0.234722 14.134-0.129634 14.134 0L14.134 9.7442 13.8993 9.50948 23.2607 9.50948 23.2607 9.97892 13.8993 9.97892C13.7696 9.97892 13.6646 9.87381 13.6646 9.7442L13.6646 0 13.8993 0.234722 0 0.234722ZM22.6348 7.86642 26.3904 9.7442 22.6348 11.622Z" fill="#F3A60D" transform="matrix(1.00185 0 0 -1 320.377 245.405)"/><path d="M319.786 244.815 333.894 244.815C334.024 244.815 334.129 244.92 334.129 245.05L334.129 267.498 333.894 267.263 344.873 267.263 344.873 267.733 333.894 267.733C333.764 267.733 333.66 267.628 333.66 267.498L333.66 245.05 333.894 245.285 319.786 245.285ZM344.247 265.62 348.003 267.498 344.247 269.376Z" fill="#F3A60D" transform="scale(1.00185 1)"/><path d="M0-0.234722 14.1087-0.234722C14.2383-0.234722 14.3434-0.129634 14.3434 0L14.3434 21.865 14.1087 21.6302 25.0877 21.6302 25.0877 22.0997 14.1087 22.0997C13.979 22.0997 13.874 21.9946 13.874 21.865L13.874 0 14.1087 0.234722 0 0.234722ZM24.4618 19.9872 28.2174 21.865 24.4618 23.7427Z" fill="#F3A60D" transform="matrix(1.00185 0 0 -1 393.369 268.042)"/><path d="M392.643 268.1 406.753 268.1C406.881 268.1 406.986 268.205 406.986 268.334L406.986 273.272 406.753 273.038 417.73 273.038 417.73 273.507 406.753 273.507C406.621 273.507 406.516 273.402 406.516 273.272L406.516 268.334 406.753 268.569 392.643 268.569ZM417.107 271.394 420.863 273.272 417.107 275.15Z" fill="#F3A60D" transform="scale(1.00185 1)"/><path d="M470.008 272.982 484.117 272.982C484.245 272.982 484.35 273.087 484.35 273.217L484.35 284.11 484.117 283.876 495.095 283.876 495.095 284.345 484.117 284.345C483.986 284.345 483.881 284.24 483.881 284.11L483.881 273.217 484.117 273.451 470.008 273.451ZM494.471 282.233 498.227 284.11 494.471 285.988Z" fill="#F3A60D" transform="scale(1.00185 1)"/><path d="M0-0.234722 14.1087-0.234722C14.2383-0.234722 14.3434-0.129634 14.3434 0L14.3434 14.6819 14.1087 14.4471 25.0877 14.4471 25.0877 14.9166 14.1087 14.9166C13.979 14.9166 13.874 14.8115 13.874 14.6819L13.874 0 14.1087 0.234722 0 0.234722ZM24.4618 12.8041 28.2174 14.6819 24.4618 16.5596Z" fill="#F3A60D" transform="matrix(1.00185 0 0 -1 470.877 273.252)"/></g></svg>